<?xml version="1.0" standalone="no"?>
<!DOCTYPE svg PUBLIC "-//W3C//DTD SVG 1.1//EN" "http://www.w3.org/Graphics/SVG/1.1/DTD/svg11.dtd" >
<svg>
<metadata>
Created by FontForge 20090914 at Tue Mar 13 12:33:38 2018
 By www-data
Copyright &#194;&#169; 2017 by Akaki Razmadze. All rights reserved.
</metadata>
<defs>
<font id="Saiti-Black" horiz-adv-x="600" >
  <font-face 
    font-family="Saiti Black"
    font-weight="900"
    font-stretch="normal"
    units-per-em="1000"
    panose-1="0 0 10 0 0 0 0 0 0 0"
    ascent="800"
    descent="-200"
    x-height="715"
    cap-height="715"
    bbox="1 -200 1350 887.002"
    underline-thickness="50"
    underline-position="-50"
    unicode-range="U+0020-U+2192"
  />
<missing-glyph horiz-adv-x="500" 
d="M410 -200h-317v1000h317v-1000zM168 733v-33h65v-37h-66v-33h166v33h-66v37h66v33h-165zM167 604v-104h166v34h-66v70h-100zM233 534h-33v36h33v-36zM167 473v-33h66v-37h-66v-33h100v70h66v33h-166zM300 413v-66h-133v-34h166v100h-33zM233 291v-56h34v23h33v-47h-100
v80h-33v-113h166v113h-100zM167 118v-113h166v113h-166zM300 38h-100v47h100v-47zM167 -18v-33h70l-70 -47v-33h166v33h-102l70 47h32v33h-166z" />
    <glyph glyph-name=".notdef" horiz-adv-x="500" 
d="M410 -200h-317v1000h317v-1000zM168 733v-33h65v-37h-66v-33h166v33h-66v37h66v33h-165zM167 604v-104h166v34h-66v70h-100zM233 534h-33v36h33v-36zM167 473v-33h66v-37h-66v-33h100v70h66v33h-166zM300 413v-66h-133v-34h166v100h-33zM233 291v-56h34v23h33v-47h-100
v80h-33v-113h166v113h-100zM167 118v-113h166v113h-166zM300 38h-100v47h100v-47zM167 -18v-33h70l-70 -47v-33h166v33h-102l70 47h32v33h-166z" />
    <glyph glyph-name="space" unicode=" " horiz-adv-x="200" 
 />
    <glyph glyph-name="exclam" unicode="!" horiz-adv-x="366" 
d="M50 715h266l-20 -445h-226zM92.5 21.5c-24.333 23.667 -36.5 53.166 -36.5 88.499c0 34.667 12.167 63.834 36.5 87.501s54.166 35.5 89.499 35.5c24 0 46 -5.5 66 -16.5s35.667 -26 47 -45s17 -39.5 17 -61.5c0 -35.333 -12.667 -64.833 -38 -88.5s-56 -35.5 -92 -35.5
c-35.333 0 -65.166 11.833 -89.499 35.5z" />
    <glyph glyph-name="quotesingle" unicode="'" horiz-adv-x="279" 
d="M30 715h219l-24 -291h-171z" />
    <glyph glyph-name="parenleft" unicode="(" horiz-adv-x="347" 
d="M57 142.5c-24.667 67 -37 134.834 -37 203.501c0 68 12.333 135.5 37 202.5s61.334 130.833 110.001 191.5h179c-75.333 -138.667 -113 -270.334 -113 -395.001c0 -63.333 9.33301 -127.5 28 -192.5s47 -132.5 85 -202.5h-179
c-48.667 61.333 -85.334 125.5 -110.001 192.5z" />
    <glyph glyph-name="parenright" unicode=")" horiz-adv-x="347" 
d="M1 -50c38 70 66.333 137.499 85 202.499s28 129.167 28 192.5c0 124.667 -37.667 256.334 -113 395.001h179c48.667 -60.667 85.334 -124.5 110.001 -191.5s37 -134.5 37 -202.5c0 -68.667 -12.333 -136.5 -37 -203.5s-61.334 -131.167 -110.001 -192.5h-179z" />
    <glyph glyph-name="plus" unicode="+" horiz-adv-x="596" 
d="M208 271h-170v162h170v186h180v-186h170v-162h-170v-186h-180v186z" />
    <glyph glyph-name="comma" unicode="," horiz-adv-x="319" 
d="M250 190c24 -24.667 36.002 -59.668 36.002 -105.001c0 -103.333 -52.333 -189 -157 -257l-86 80c37.333 30.667 60.666 61.334 69.999 92.001c-26.667 8 -47.167 21.5 -61.5 40.5s-21.5 42.167 -21.5 69.5c0 32 12.167 59.5 36.5 82.5s54.166 34.5 89.499 34.5
c38.667 0 70 -12.333 94 -37z" />
    <glyph glyph-name="hyphen" unicode="-" horiz-adv-x="406" 
d="M46 433h314v-165h-314v165z" />
    <glyph glyph-name="period" unicode="." horiz-adv-x="298" 
d="M56.5 21.5c-24.333 23.667 -36.5 53.166 -36.5 88.499c0 34.667 12.167 63.834 36.5 87.501s54.166 35.5 89.499 35.5c24 0 46 -5.5 66 -16.5s35.667 -26 47 -45s17 -39.5 17 -61.5c0 -35.333 -12.667 -64.833 -38 -88.5s-56 -35.5 -92 -35.5
c-35.333 0 -65.166 11.833 -89.499 35.5z" />
    <glyph glyph-name="zero" unicode="0" horiz-adv-x="718" 
d="M650.5 136.5c-29 -49 -68.835 -86.5 -119.502 -112.5s-108 -39 -172 -39c-67.333 0 -126.166 12.833 -176.499 38.5s-89.333 63 -117 112s-41.5 107.5 -41.5 175.5v98c0 68.667 14.833 127.167 44.5 175.5s69.834 84.666 120.501 108.999s107 36.5 169 36.5
c64 0 121.333 -12.167 172 -36.5s90.667 -60.666 120 -108.999s44 -106.833 44 -175.5v-98c0 -67.333 -14.5 -125.5 -43.5 -174.5zM412.498 504c-11.667 17.333 -29.5 26.001 -53.5 26.001c-47.333 0 -71 -36.667 -71 -110v-121c0 -39.333 6 -67.5 18 -84.5
s29.667 -25.5 53 -25.5c47.333 0 71 36.667 71 110v120c0 39.333 -5.83301 67.666 -17.5 84.999z" />
    <glyph glyph-name="one" unicode="1" horiz-adv-x="450" 
d="M144 475l-134 -32v230l173 42h227v-715h-266v475z" />
    <glyph glyph-name="two" unicode="2" horiz-adv-x="671" 
d="M20 180l311.999 226.998c21.333 15.333 36.333 28 45 38s13 22.333 13 37c0 33.333 -19.333 50 -58 50c-20 0 -34.833 -6.16699 -44.5 -18.5s-14.5 -28.833 -14.5 -49.5v-25h-253v30c0 86.667 28.5 151.834 85.5 195.501s134.833 65.5 233.5 65.5
c96.667 0 172.834 -20.667 228.501 -62s83.5 -99.666 83.5 -174.999c0 -40.667 -10.5 -76.5 -31.5 -107.5s-48.5 -59.167 -82.5 -84.5l-144 -106h258v-195h-631v180z" />
    <glyph glyph-name="three" unicode="3" horiz-adv-x="677" 
d="M261 233c0 -18.667 5.83301 -33.1699 17.5 -43.5029s26.5 -15.5 44.5 -15.5c18.667 0 33.667 4.5 45 13.5s17 22.167 17 39.5c0 34 -21.333 51 -64 51h-29v162h30c22 0 39 4.33301 51 13s18 21.334 18 38.001s-5.33301 29 -16 37s-25.667 12 -45 12
c-16.667 0 -30.667 -5 -42 -15s-17 -23.333 -17 -40v-17h-243v25c0 50.667 13.333 93.834 40 129.501s63 62.5 109 80.5s98.667 27 158 27c56 0 106.5 -7.66699 151.5 -23s80.667 -38.333 107 -69s39.5 -68 39.5 -112c0 -40 -10.667 -73 -32 -99s-52.333 -44 -93 -54
c43.333 -8 77.5 -26 102.5 -54s37.5 -64.333 37.5 -109c0 -73.333 -28.833 -129.166 -86.5 -167.499s-133.167 -57.5 -226.5 -57.5c-98.667 0 -175.5 19 -230.5 57s-82.5 98 -82.5 180v30h239v-19z" />
    <glyph glyph-name="four" unicode="4" horiz-adv-x="689" 
d="M330 130h-313v198l254 387h314v-407h88v-178h-88v-130h-255v130zM208 308h129v207z" />
    <glyph glyph-name="five" unicode="5" horiz-adv-x="664" 
d="M255 431c18.667 17.333 39.833 29.666 63.5 36.999s53.834 11 90.501 11c47.333 0 88.666 -9.83301 123.999 -29.5s62.5 -47.5 81.5 -83.5s28.5 -77.333 28.5 -124c0 -82.667 -28.667 -146.167 -86 -190.5s-133 -66.5 -227 -66.5c-90.667 0 -163.834 21 -219.501 63
s-83.5 101.667 -83.5 179v13h240v-8c0 -13.333 5.5 -24.166 16.5 -32.499s23.5 -12.5 37.5 -12.5c15.333 0 28.5 4.83301 39.5 14.5s16.5 23.5 16.5 41.5v18c0 17.333 -5.16699 30.833 -15.5 40.5s-23.166 14.5 -38.499 14.5c-30 0 -49 -12 -57 -36h-239l33 435h534v-188
h-330z" />
    <glyph glyph-name="six" unicode="6" horiz-adv-x="719" 
d="M406 528.5c-11.333 5.66699 -23.666 8.50098 -36.999 8.50098c-24.667 0 -44.5 -8.83301 -59.5 -26.5s-22.5 -44.5 -22.5 -80.5v-36c20.667 24 43 41 67 51s54.333 15 91 15c77.333 0 138.166 -18.5 182.499 -55.5s66.5 -90.833 66.5 -161.5
c0 -55.333 -13.833 -102.333 -41.5 -141s-66 -67.834 -115 -87.501s-105.167 -29.5 -168.5 -29.5c-112.667 0 -198.334 29.667 -257.001 89s-88 141 -88 245v80c0 70 14.333 129.833 43 179.5s68.5 87.334 119.5 113.001s109.5 38.5 175.5 38.5
c91.333 0 165.333 -19.833 222 -59.5s88.334 -96.834 95.001 -171.501h-253c-2 14 -8.66699 23.833 -20 29.5zM411.5 189.501c11 12.333 16.501 27.5 16.501 45.5v12c0 17.333 -5.5 32.333 -16.5 45s-26.167 19 -45.5 19c-18.667 0 -33.834 -6.5 -45.501 -19.5
s-17.5 -27.833 -17.5 -44.5v-12c0 -17.333 5.66699 -32.333 17 -45s26.333 -19 45 -19c20 0 35.5 6.16699 46.5 18.5z" />
    <glyph glyph-name="seven" unicode="7" horiz-adv-x="592" 
d="M289 499h-279v216h572v-192l-218 -523h-280z" />
    <glyph glyph-name="eight" unicode="8" horiz-adv-x="683" 
d="M636 310c20.667 -28 31 -62.001 31 -102.001c0 -75.333 -30 -131.333 -90 -168s-138.667 -55 -236 -55c-99.333 0 -178.333 17.333 -237 52s-88 89.334 -88 164.001c0 41.333 10.833 76.333 32.5 105s53.5 50.667 95.5 66c-33.333 15.333 -57.833 35 -73.5 59
s-23.5 53 -23.5 87c0 46 13.333 84.833 40 116.5s62.5 55.5 107.5 71.5s94.833 24 149.5 24c86 0 156.833 -17.833 212.5 -53.5s83.5 -88.167 83.5 -157.5s-32.333 -118 -97 -146c41.333 -14 72.333 -35 93 -63zM387.5 449.999c10.333 10.667 15.5 23.333 15.5 38v12
c0 14.667 -5.16699 27.334 -15.5 38.001s-24.5 16 -42.5 16s-32.333 -5.5 -43 -16.5s-16 -23.5 -16 -37.5v-12c0 -14.667 5.16699 -27.334 15.5 -38.001s24.5 -16 42.5 -16c18.667 0 33.167 5.33301 43.5 16zM389.5 179.498c11 12.333 16.501 26.5 16.501 42.5v12
c0 16 -5.5 30.167 -16.5 42.5s-26.167 18.5 -45.5 18.5c-18.667 0 -33.834 -6.33301 -45.501 -19s-17.5 -26.667 -17.5 -42v-12c0 -16 5.66699 -30.167 17 -42.5s26.333 -18.5 45 -18.5c20 0 35.5 6.16699 46.5 18.5z" />
    <glyph glyph-name="nine" unicode="9" horiz-adv-x="719" 
d="M312 186.5c11.333 -5.66699 23.666 -8.50098 36.999 -8.50098c24.667 0 44.5 8.83301 59.5 26.5s22.5 44.5 22.5 80.5v36c-20.667 -24 -43 -41 -67 -51s-54.333 -15 -91 -15c-77.333 0 -138.166 18.5 -182.499 55.5s-66.5 90.833 -66.5 161.5
c0 55.333 13.833 102.333 41.5 141s66 67.834 115 87.501s105.167 29.5 168.5 29.5c112.667 0 198.334 -29.667 257.001 -89s88 -141 88 -245v-80c0 -70 -14.333 -129.833 -43 -179.5s-68.5 -87.334 -119.5 -113.001s-109.5 -38.5 -175.5 -38.5
c-91.333 0 -165.333 19.833 -222 59.5s-88.334 96.834 -95.001 171.501h253c2 -14 8.66699 -23.833 20 -29.5zM306.5 525.499c-11 -12.333 -16.501 -27.5 -16.501 -45.5v-12c0 -17.333 5.5 -32.333 16.5 -45s26.167 -19 45.5 -19c18.667 0 33.834 6.5 45.501 19.5
s17.5 27.833 17.5 44.5v12c0 17.333 -5.66699 32.333 -17 45s-26.333 19 -45 19c-20 0 -35.5 -6.16699 -46.5 -18.5z" />
    <glyph glyph-name="A" unicode="A" horiz-adv-x="784" 
d="M475 95h-202l-24 -95h-248l220 715h343l219 -715h-284zM317 273h114l-56 228z" />
    <glyph glyph-name="B" unicode="B" horiz-adv-x="705" 
d="M412 0l-362 -0.000976562v715h383c72 0 129.5 -16.167 172.5 -48.5s64.5 -78.833 64.5 -139.5v-14c0 -76.667 -46 -125 -138 -145c46 -6 83 -23.667 111 -53s42 -66.666 42 -111.999v-14c0 -126 -91 -189 -273 -189zM405.5 532.999c-9.66699 7.33301 -23.167 11 -40.5 11
h-56v-89h56c18 0 31.667 3.66699 41 11s14 17.333 14 30v4c0 14.667 -4.83301 25.667 -14.5 33zM406.5 266.999c-11 9.33301 -26.167 14 -45.5 14h-52v-109h52c19.333 0 34.5 4.5 45.5 13.5s16.5 21.833 16.5 38.5v4c0 16.667 -5.5 29.667 -16.5 39z" />
    <glyph glyph-name="C" unicode="C" horiz-adv-x="772" 
d="M20 391c0 70.667 15.335 131.499 46.002 182.499s73.667 89.833 129 116.5s119 40 191 40c69.333 0 131.666 -11.333 186.999 -34s99 -56 131 -100s48 -96.667 48 -158v-21h-278v10c0 30.667 -8 54.334 -24 71.001s-37 25 -63 25c-29.333 0 -51.5 -12 -66.5 -36
s-22.5 -55.667 -22.5 -95v-68c0 -40.667 7.33301 -72.5 22 -95.5s37 -34.5 67 -34.5c29.333 0 51.166 9 65.499 27s21.5 40.667 21.5 68v20h278v-29c0 -60 -15.667 -112.167 -47 -156.5s-74.5 -78.5 -129.5 -102.5s-117.833 -36 -188.5 -36
c-74.667 0 -139.667 13.833 -195 41.5s-97.833 67 -127.5 118s-44.5 110.5 -44.5 178.5v68z" />
    <glyph glyph-name="D" unicode="D" horiz-adv-x="770" 
d="M647.5 79.5c-65 -53 -160.166 -79.501 -285.499 -79.501h-312v715h311c127.333 0 223.166 -27.167 287.499 -81.5s96.5 -135.166 96.5 -242.499v-71c0 -107.333 -32.5 -187.5 -97.5 -240.5zM446.001 236.499c17.333 22.333 25.999 51.5 25.999 87.5v68
c0 38 -8.66699 67.5 -26 88.5s-40.666 31.5 -69.999 31.5h-59v-309h61c28 0 50.667 11.167 68 33.5z" />
    <glyph glyph-name="E" unicode="E" horiz-adv-x="644" 
d="M50 715h549v-203h-284v-61h254v-184h-254v-64h284v-203h-549v715z" />
    <glyph glyph-name="F" unicode="F" horiz-adv-x="587" 
d="M50 715h517v-204h-250v-100h220v-193h-220v-218h-267v715z" />
    <glyph glyph-name="G" unicode="G" horiz-adv-x="784" 
d="M393 411l371.002 -0.00195312v-118c0 -59.333 -14.167 -112.333 -42.5 -159s-70.5 -83.167 -126.5 -109.5s-123.333 -39.5 -202 -39.5c-76.667 0 -143 13.833 -199 41.5s-99 66.834 -129 117.501s-45 110.334 -45 179.001v68c0 70.667 15.5 131.5 46.5 182.5
s74.5 89.833 130.5 116.5s121 40 195 40c111.333 0 198.166 -23.833 260.499 -71.5s96.166 -115.167 101.499 -202.5h-272c-2 26 -9.83301 45.333 -23.5 58s-35.5 19 -65.5 19c-32.667 0 -56.667 -12.5 -72 -37.5s-23 -57.833 -23 -98.5v-78c0 -86.667 33 -130 99 -130
c62 0 93 20.333 93 61h-97v161z" />
    <glyph glyph-name="H" unicode="H" horiz-adv-x="796" 
d="M480 263h-163v-263h-267v715h267v-247h163v247h266v-715h-266v263z" />
    <glyph glyph-name="I" unicode="I" horiz-adv-x="369" 
d="M50 715h269v-715h-269v715z" />
    <glyph glyph-name="J" unicode="J" horiz-adv-x="463" 
d="M338.5 68c-49.667 -45.333 -126.833 -68 -231.5 -68h-96v210h53c29.333 0 50.333 6.66699 63 20s19 33.333 19 60v425h267v-434c0 -96.667 -24.833 -167.667 -74.5 -213z" />
    <glyph glyph-name="K" unicode="K" horiz-adv-x="761" 
d="M760 0h-276l-123 236h-45v-236h-266v716h266v-275l144 275h278l-193 -325z" />
    <glyph glyph-name="L" unicode="L" horiz-adv-x="559" 
d="M50 715h267v-511h241v-204h-508v715z" />
    <glyph glyph-name="M" unicode="M" horiz-adv-x="1049" 
d="M709 450l-92 -450h-200l-86 450l-30 -450h-256l50 715h332l98 -376l103 376h326l50 -715h-265z" />
    <glyph glyph-name="N" unicode="N" horiz-adv-x="788" 
d="M287 390v-390h-237v715h297l155 -332v332h236v-715h-253z" />
    <glyph glyph-name="O" unicode="O" horiz-adv-x="785" 
d="M201.5 26.5c-56.333 27.667 -100.666 67.168 -132.999 118.501s-48.5 110.666 -48.5 177.999v68c0 70 16 130.667 48 182s76.167 90.333 132.5 117s119.833 40 190.5 40c73.333 0 138.333 -13.167 195 -39.5s100.667 -64.5 132 -114.5s47 -109.333 47 -178v-68
c0 -70 -15.667 -131 -47 -183s-75.333 -92 -132 -120s-121.334 -42 -194.001 -42c-70.667 0 -134.167 13.833 -190.5 41.5zM464 229.501c15.333 24.333 23.001 55.833 23.001 94.5v68c0 41.333 -7.83301 73.5 -23.5 96.5s-39.834 34.5 -72.501 34.5
c-32 0 -55.5 -12 -70.5 -36s-22.5 -55.667 -22.5 -95v-68c0 -40.667 7.66699 -72.667 23 -96s39 -35 71 -35c32.667 0 56.667 12.167 72 36.5z" />
    <glyph glyph-name="P" unicode="P" horiz-adv-x="704" 
d="M50 715l328 0.000976562c92 0 166 -20.667 222 -62s84 -106.333 84 -195v-11c0 -84.667 -26.833 -149.334 -80.5 -194.001s-124.5 -67 -212.5 -67h-76v-186h-265v715zM406 502.501c-11.333 10.333 -27.332 15.5 -47.999 15.5h-43v-136h42
c21.333 0 37.666 5.33301 48.999 16s17 26.667 17 48v11c0 20 -5.66699 35.167 -17 45.5z" />
    <glyph glyph-name="Q" unicode="Q" horiz-adv-x="785" 
d="M765 330c0 -49.333 -8.00098 -94.499 -24.001 -135.499s-39 -76.167 -69 -105.5l81 -131l-221 -112l-71 144c-24.667 -3.33301 -47.667 -5 -69 -5c-70.667 0 -134.167 13.833 -190.5 41.5s-100.666 67.167 -132.999 118.5s-48.5 110.666 -48.5 177.999v68
c0 70 16 130.667 48 182s76.167 90.333 132.5 117s119.833 40 190.5 40c73.333 0 138.333 -13.167 195 -39.5s100.667 -64.5 132 -114.5s47 -109.333 47 -178v-68zM320.999 228.001c15.333 -23.333 39.001 -35 71.001 -35c32.667 0 56.667 12.167 72 36.5s23 55.833 23 94.5
v68c0 41.333 -7.83301 73.5 -23.5 96.5s-39.834 34.5 -72.501 34.5c-32 0 -55.5 -12 -70.5 -36s-22.5 -55.667 -22.5 -95v-68c0 -40.667 7.66699 -72.667 23 -96z" />
    <glyph glyph-name="R" unicode="R" horiz-adv-x="713" 
d="M432 0l-72 206.001h-45v-206h-265v715h328c91.333 0 165.166 -20.333 221.499 -61s84.5 -104 84.5 -190v-11c0 -40.667 -8.66699 -77.334 -26 -110.001s-40.666 -58 -69.999 -76l114 -267h-270zM315 392.001l42.001 -0.000976562c21.333 0 37.666 5 48.999 15
s17 24.333 17 43v11c0 18.667 -5.66699 32.834 -17 42.501s-27.333 14.5 -48 14.5h-43v-126z" />
    <glyph glyph-name="S" unicode="S" horiz-adv-x="691" 
d="M291.5 186c13.667 -10.667 31.832 -16.002 54.499 -16.002c20.667 0 37.5 3 50.5 9s19.5 15.333 19.5 28c0 10.667 -5 18.667 -15 24s-25.667 10 -47 14l-141 28c-62 12.667 -109.333 37.834 -142 75.501s-49 85.5 -49 143.5c0 76 27.833 134.667 83.5 176
s131.834 62 228.501 62c98.667 0 176.834 -19.667 234.501 -59s86.5 -100.666 86.5 -183.999h-246c0 37.333 -26.667 56 -80 56c-38 0 -57 -10.333 -57 -31c0 -11.333 5.16699 -19.833 15.5 -25.5s28.166 -11.167 53.499 -16.5l121 -25
c64 -13.333 114.833 -38.333 152.5 -75s56.5 -85.667 56.5 -147c0 -75.333 -28.167 -133.833 -84.5 -175.5s-136.833 -62.5 -241.5 -62.5c-99.333 0 -178.333 20 -237 60s-88 102.333 -88 187h251c0 -20 6.83301 -35.333 20.5 -46z" />
    <glyph glyph-name="T" unicode="T" horiz-adv-x="634" 
d="M183 511h-173v204h614v-204h-173v-511h-268v511z" />
    <glyph glyph-name="U" unicode="U" horiz-adv-x="781" 
d="M647 65c-59.333 -53.333 -144.334 -80 -255.001 -80c-111.333 0 -197 26.667 -257 80s-90 133 -90 239v411h266v-405c0 -38 5.83301 -67 17.5 -87s32.834 -30 63.501 -30s51 9.66699 61 29s15 48.666 15 87.999v405h268v-412c0 -105.333 -29.667 -184.666 -89 -237.999z
" />
    <glyph glyph-name="V" unicode="V" horiz-adv-x="762" 
d="M1 715h290l110 -436l111 436h249l-227 -715h-299z" />
    <glyph glyph-name="W" unicode="W" horiz-adv-x="1026" 
d="M521 378l-82 -378h-272l-166 715h267l66 -393l67 393h224l83 -398l71 398h246l-166 -715h-255z" />
    <glyph glyph-name="X" unicode="X" horiz-adv-x="787" 
d="M379 217l-103 -217h-275l213 368l-196 347h304l78 -178l76 178h272l-177 -336l215 -379h-303z" />
    <glyph glyph-name="Y" unicode="Y" horiz-adv-x="720" 
d="M231 303l-230 412h288l87 -194l90 194h253l-220 -411v-304h-268v303z" />
    <glyph glyph-name="Z" unicode="Z" horiz-adv-x="606" 
d="M20 186l268 336h-257v193h545v-182l-268 -337h278v-196h-566v186z" />
    <glyph glyph-name="a" unicode="a" horiz-adv-x="784" 
d="M475 95h-202l-24 -95h-248l220 715h343l219 -715h-284zM317 273h114l-56 228z" />
    <glyph glyph-name="b" unicode="b" horiz-adv-x="705" 
d="M412 0l-362 -0.000976562v715h383c72 0 129.5 -16.167 172.5 -48.5s64.5 -78.833 64.5 -139.5v-14c0 -76.667 -46 -125 -138 -145c46 -6 83 -23.667 111 -53s42 -66.666 42 -111.999v-14c0 -126 -91 -189 -273 -189zM405.5 532.999c-9.66699 7.33301 -23.167 11 -40.5 11
h-56v-89h56c18 0 31.667 3.66699 41 11s14 17.333 14 30v4c0 14.667 -4.83301 25.667 -14.5 33zM406.5 266.999c-11 9.33301 -26.167 14 -45.5 14h-52v-109h52c19.333 0 34.5 4.5 45.5 13.5s16.5 21.833 16.5 38.5v4c0 16.667 -5.5 29.667 -16.5 39z" />
    <glyph glyph-name="c" unicode="c" horiz-adv-x="772" 
d="M20 391c0 70.667 15.335 131.499 46.002 182.499s73.667 89.833 129 116.5s119 40 191 40c69.333 0 131.666 -11.333 186.999 -34s99 -56 131 -100s48 -96.667 48 -158v-21h-278v10c0 30.667 -8 54.334 -24 71.001s-37 25 -63 25c-29.333 0 -51.5 -12 -66.5 -36
s-22.5 -55.667 -22.5 -95v-68c0 -40.667 7.33301 -72.5 22 -95.5s37 -34.5 67 -34.5c29.333 0 51.166 9 65.499 27s21.5 40.667 21.5 68v20h278v-29c0 -60 -15.667 -112.167 -47 -156.5s-74.5 -78.5 -129.5 -102.5s-117.833 -36 -188.5 -36
c-74.667 0 -139.667 13.833 -195 41.5s-97.833 67 -127.5 118s-44.5 110.5 -44.5 178.5v68z" />
    <glyph glyph-name="d" unicode="d" horiz-adv-x="770" 
d="M647.5 79.5c-65 -53 -160.166 -79.501 -285.499 -79.501h-312v715h311c127.333 0 223.166 -27.167 287.499 -81.5s96.5 -135.166 96.5 -242.499v-71c0 -107.333 -32.5 -187.5 -97.5 -240.5zM446.001 236.499c17.333 22.333 25.999 51.5 25.999 87.5v68
c0 38 -8.66699 67.5 -26 88.5s-40.666 31.5 -69.999 31.5h-59v-309h61c28 0 50.667 11.167 68 33.5z" />
    <glyph glyph-name="e" unicode="e" horiz-adv-x="644" 
d="M50 715h549v-203h-284v-61h254v-184h-254v-64h284v-203h-549v715z" />
    <glyph glyph-name="f" unicode="f" horiz-adv-x="587" 
d="M50 715h517v-204h-250v-100h220v-193h-220v-218h-267v715z" />
    <glyph glyph-name="g" unicode="g" horiz-adv-x="784" 
d="M393 421l370.999 -0.000976562v-128c0 -59.333 -14.167 -112.333 -42.5 -159s-70.5 -83.167 -126.5 -109.5s-123.333 -39.5 -202 -39.5c-76.667 0 -143 13.833 -199 41.5s-99 66.834 -129 117.501s-45 110.334 -45 179.001v68c0 70.667 15.5 131.5 46.5 182.5
s74.5 89.833 130.5 116.5s121 40 195 40c110.667 0 197.334 -23.333 260.001 -70s96.667 -111.334 102 -194.001h-272c-4.66699 22 -14 38.667 -28 50s-34.333 17 -61 17c-32.667 0 -56.667 -12.5 -72 -37.5s-23 -57.833 -23 -98.5v-78c0 -40 8.5 -71.667 25.5 -95
s43.167 -35 78.5 -35c32.667 0 57.167 5.33301 73.5 16s24.5 25.667 24.5 45h-107v171z" />
    <glyph glyph-name="h" unicode="h" horiz-adv-x="796" 
d="M480 263h-163v-263h-267v715h267v-247h163v247h266v-715h-266v263z" />
    <glyph glyph-name="i" unicode="i" horiz-adv-x="369" 
d="M50 715h269v-715h-269v715z" />
    <glyph glyph-name="j" unicode="j" horiz-adv-x="463" 
d="M338.5 68c-49.667 -45.333 -126.833 -68 -231.5 -68h-96v210h53c29.333 0 50.333 6.66699 63 20s19 33.333 19 60v425h267v-434c0 -96.667 -24.833 -167.667 -74.5 -213z" />
    <glyph glyph-name="k" unicode="k" horiz-adv-x="761" 
d="M760 0h-276l-123 236h-45v-236h-266v716h266v-275l144 275h278l-193 -325z" />
    <glyph glyph-name="l" unicode="l" horiz-adv-x="559" 
d="M50 715h267v-511h241v-204h-508v715z" />
    <glyph glyph-name="m" unicode="m" horiz-adv-x="1049" 
d="M709 450l-92 -450h-200l-86 450l-30 -450h-256l50 715h332l98 -376l103 376h326l50 -715h-265z" />
    <glyph glyph-name="n" unicode="n" horiz-adv-x="788" 
d="M287 390v-390h-237v715h297l155 -332v332h236v-715h-253z" />
    <glyph glyph-name="o" unicode="o" horiz-adv-x="785" 
d="M201.5 26.5c-56.333 27.667 -100.666 67.168 -132.999 118.501s-48.5 110.666 -48.5 177.999v68c0 70 16 130.667 48 182s76.167 90.333 132.5 117s119.833 40 190.5 40c73.333 0 138.333 -13.167 195 -39.5s100.667 -64.5 132 -114.5s47 -109.333 47 -178v-68
c0 -70 -15.667 -131 -47 -183s-75.333 -92 -132 -120s-121.334 -42 -194.001 -42c-70.667 0 -134.167 13.833 -190.5 41.5zM464 229.501c15.333 24.333 23.001 55.833 23.001 94.5v68c0 41.333 -7.83301 73.5 -23.5 96.5s-39.834 34.5 -72.501 34.5
c-32 0 -55.5 -12 -70.5 -36s-22.5 -55.667 -22.5 -95v-68c0 -40.667 7.66699 -72.667 23 -96s39 -35 71 -35c32.667 0 56.667 12.167 72 36.5z" />
    <glyph glyph-name="p" unicode="p" horiz-adv-x="704" 
d="M50 715l328 0.000976562c92 0 166 -20.667 222 -62s84 -106.333 84 -195v-11c0 -84.667 -26.833 -149.334 -80.5 -194.001s-124.5 -67 -212.5 -67h-76v-186h-265v715zM406 502.501c-11.333 10.333 -27.332 15.5 -47.999 15.5h-43v-136h42
c21.333 0 37.666 5.33301 48.999 16s17 26.667 17 48v11c0 20 -5.66699 35.167 -17 45.5z" />
    <glyph glyph-name="q" unicode="q" horiz-adv-x="785" 
d="M765 330c0 -49.333 -8.00098 -94.499 -24.001 -135.499s-39 -76.167 -69 -105.5l81 -131l-221 -112l-71 144c-24.667 -3.33301 -47.667 -5 -69 -5c-70.667 0 -134.167 13.833 -190.5 41.5s-100.666 67.167 -132.999 118.5s-48.5 110.666 -48.5 177.999v68
c0 70 16 130.667 48 182s76.167 90.333 132.5 117s119.833 40 190.5 40c73.333 0 138.333 -13.167 195 -39.5s100.667 -64.5 132 -114.5s47 -109.333 47 -178v-68zM320.999 228.001c15.333 -23.333 39.001 -35 71.001 -35c32.667 0 56.667 12.167 72 36.5s23 55.833 23 94.5
v68c0 41.333 -7.83301 73.5 -23.5 96.5s-39.834 34.5 -72.501 34.5c-32 0 -55.5 -12 -70.5 -36s-22.5 -55.667 -22.5 -95v-68c0 -40.667 7.66699 -72.667 23 -96z" />
    <glyph glyph-name="r" unicode="r" horiz-adv-x="713" 
d="M432 0l-72 206.001h-45v-206h-265v715h328c91.333 0 165.166 -20.333 221.499 -61s84.5 -104 84.5 -190v-11c0 -40.667 -8.66699 -77.334 -26 -110.001s-40.666 -58 -69.999 -76l114 -267h-270zM315 392.001l42.001 -0.000976562c21.333 0 37.666 5 48.999 15
s17 24.333 17 43v11c0 18.667 -5.66699 32.834 -17 42.501s-27.333 14.5 -48 14.5h-43v-126z" />
    <glyph glyph-name="s" unicode="s" horiz-adv-x="691" 
d="M291.5 186c13.667 -10.667 31.832 -16.002 54.499 -16.002c20.667 0 37.5 3 50.5 9s19.5 15.333 19.5 28c0 10.667 -5 18.667 -15 24s-25.667 10 -47 14l-141 28c-62 12.667 -109.333 37.834 -142 75.501s-49 85.5 -49 143.5c0 76 27.833 134.667 83.5 176
s131.834 62 228.501 62c98.667 0 176.834 -19.667 234.501 -59s86.5 -100.666 86.5 -183.999h-246c0 37.333 -26.667 56 -80 56c-38 0 -57 -10.333 -57 -31c0 -11.333 5.16699 -19.833 15.5 -25.5s28.166 -11.167 53.499 -16.5l121 -25
c64 -13.333 114.833 -38.333 152.5 -75s56.5 -85.667 56.5 -147c0 -75.333 -28.167 -133.833 -84.5 -175.5s-136.833 -62.5 -241.5 -62.5c-99.333 0 -178.333 20 -237 60s-88 102.333 -88 187h251c0 -20 6.83301 -35.333 20.5 -46z" />
    <glyph glyph-name="t" unicode="t" horiz-adv-x="634" 
d="M183 511h-173v204h614v-204h-173v-511h-268v511z" />
    <glyph glyph-name="u" unicode="u" horiz-adv-x="781" 
d="M647 65c-59.333 -53.333 -144.334 -80 -255.001 -80c-111.333 0 -197 26.667 -257 80s-90 133 -90 239v411h266v-405c0 -38 5.83301 -67 17.5 -87s32.834 -30 63.501 -30s51 9.66699 61 29s15 48.666 15 87.999v405h268v-412c0 -105.333 -29.667 -184.666 -89 -237.999z
" />
    <glyph glyph-name="v" unicode="v" horiz-adv-x="762" 
d="M1 715h290l110 -436l111 436h249l-227 -715h-299z" />
    <glyph glyph-name="w" unicode="w" horiz-adv-x="1026" 
d="M521 378l-82 -378h-272l-166 715h267l66 -393l67 393h224l83 -398l71 398h246l-166 -715h-255z" />
    <glyph glyph-name="x" unicode="x" horiz-adv-x="787" 
d="M379 217l-103 -217h-275l213 368l-196 347h304l78 -178l76 178h272l-177 -336l215 -379h-303z" />
    <glyph glyph-name="y" unicode="y" horiz-adv-x="720" 
d="M231 303l-230 412h288l87 -194l90 194h253l-220 -411v-304h-268v303z" />
    <glyph glyph-name="z" unicode="z" horiz-adv-x="606" 
d="M20 186l258 336h-247v193h545v-182l-258 -337h268v-196h-566v186z" />
    <glyph glyph-name="uni10D0" unicode="&#x10d0;" horiz-adv-x="701" 
d="M635.5 117.5c-27 -43 -65.3281 -75.8311 -114.995 -98.498s-107.834 -34 -174.501 -34c-66 0 -123.5 11.167 -172.5 33.5s-86.833 55.166 -113.5 98.499s-40 95.666 -40 156.999v61h266v-65c0 -22.667 4.66699 -41.167 14 -55.5s24.666 -21.5 45.999 -21.5
s36.166 6.83301 44.499 20.5s12.5 32.5 12.5 56.5v46c0 23.333 -6 43.333 -18 60s-31 36.667 -57 60s-47.333 44.666 -64 63.999s-30.834 44.833 -42.501 76.5s-17.5 69.5 -17.5 113.5v25h267c0 -28.667 7.16699 -53.5 21.5 -74.5s36.5 -46.167 66.5 -75.5
c25.333 -25.333 45.666 -47.5 60.999 -66.5s28.5 -42.167 39.5 -69.5s16.5 -58.666 16.5 -93.999v-62c0 -60.667 -13.5 -112.5 -40.5 -155.5z" />
    <glyph glyph-name="uni10D1" unicode="&#x10d1;" horiz-adv-x="706" 
d="M639 394.5c31.333 -39 47.002 -87.832 47.002 -146.499v-11c0 -80 -29.667 -142 -89 -186s-140.666 -66 -243.999 -66c-102.667 0 -183.834 22 -243.501 66s-89.5 106 -89.5 186v11c0 65.333 19.5 118.5 58.5 159.5s93.833 68.5 164.5 82.5v20
c0 13.333 -3.16699 24.166 -9.5 32.499s-16.5 18.5 -30.5 30.5c-19.333 16 -34 32 -44 48s-15 38.667 -15 68v26h267c0 -14 3.16699 -25.667 9.5 -35s16.166 -20.333 29.499 -33c18 -17.333 31.833 -34.333 41.5 -51s14.5 -39.667 14.5 -69v-47
c57.333 -18 101.666 -46.5 132.999 -85.5zM416.002 250.001c0 16.667 -5.83301 29.667 -17.5 39s-26.834 14 -45.501 14s-33.834 -4.66699 -45.501 -14s-17.5 -22.333 -17.5 -39v-14c0 -17.333 5.83301 -30.666 17.5 -39.999s26.834 -14 45.501 -14
s33.834 4.66699 45.501 14s17.5 22.666 17.5 39.999v14z" />
    <glyph glyph-name="uni10D2" unicode="&#x10d2;" horiz-adv-x="706" 
d="M653 352c22 -32.667 33 -68.6611 33 -107.994v-10c0 -52 -13.5 -96.667 -40.5 -134s-65.5 -65.833 -115.5 -85.5s-109 -29.5 -177 -29.5c-67.333 0 -126 9.83301 -176 29.5s-88.667 48.167 -116 85.5s-41 82 -41 134v10c0 78 30.667 137.833 92 179.5
s141.666 62.5 240.999 62.5c10.667 0 19.334 3 26.001 9s10 13.667 10 23s-3.16699 17.166 -9.5 23.499s-16.166 9.5 -29.499 9.5c-14 0 -24.667 -3.5 -32 -10.5s-11 -15.5 -11 -25.5h-252c0 45.333 12.833 84.166 38.5 116.499s60.667 56.833 105 73.5
s94.166 25 149.499 25c60.667 0 113 -8 157 -24s77.5 -38.333 100.5 -67s34.5 -62.334 34.5 -101.001c0 -20.667 -4.5 -41.834 -13.5 -63.501s-24.833 -39.834 -47.5 -54.501c27.333 -12.667 52 -35.334 74 -68.001zM416 241.006c0 15.333 -5.83301 27.833 -17.5 37.5
s-26.834 14.5 -45.501 14.5s-33.834 -4.83301 -45.501 -14.5s-17.5 -22.167 -17.5 -37.5v-6c0 -16 5.83301 -28.833 17.5 -38.5s26.834 -14.5 45.501 -14.5s33.834 4.83301 45.501 14.5s17.5 22.5 17.5 38.5v6z" />
    <glyph glyph-name="uni10D3" unicode="&#x10d3;" horiz-adv-x="966" 
d="M814 703.5c40.667 -17.667 72.833 -43.502 96.5 -77.502s35.5 -74.667 35.5 -122v-22c0 -70 -24.833 -124.667 -74.5 -164s-117.834 -59 -204.501 -59c-167.333 0 -260.666 69.667 -279.999 209c-2 16.667 -5.83301 29.834 -11.5 39.501s-16.5 14.5 -32.5 14.5
s-27.833 -5.16699 -35.5 -15.5s-11.5 -23.833 -11.5 -40.5v-31c0 -48.667 11.667 -85.667 35 -111s60.666 -44.666 111.999 -57.999l147 -39c66 -18 116.5 -45.333 151.5 -82s52.5 -85 52.5 -145h-291c-4.66699 16.667 -14.167 29 -28.5 37s-34.833 15.333 -61.5 22l-118 28
c-86 20.667 -151.667 57.167 -197 109.5s-68 121.166 -68 206.499v63c0 56.667 12 104.834 36 144.501s56.833 69.5 98.5 89.5s88.167 30 139.5 30c38.667 0 72.5 -6.5 101.5 -19.5s53.833 -34.167 74.5 -63.5c18.667 27.333 45.334 48 80.001 62s74 21 118 21
c50 0 95.333 -8.83301 136 -26.5zM704.999 452.998c10 9.33301 15 21.666 15 36.999v6c0 14.667 -5.33301 26.667 -16 36s-23 14 -37 14s-26.167 -4.66699 -36.5 -14s-15.5 -21.333 -15.5 -36v-6c0 -15.333 5 -27.666 15 -36.999s22.667 -14 38 -14
c14.667 0 27 4.66699 37 14z" />
    <glyph glyph-name="uni10D4" unicode="&#x10d4;" horiz-adv-x="721" 
d="M594 654.5c58 -50.333 86.999 -121.168 86.999 -212.501v-169c0 -91.333 -29 -162.166 -87 -212.499s-137.333 -75.5 -238 -75.5c-65.333 0 -122.5 11.5 -171.5 34.5s-87 55.833 -114 98.5s-40.5 93 -40.5 151v52h266v-61c0 -18 4.83301 -33.667 14.5 -47
s24.834 -20 45.501 -20c38 0 57 22.333 57 67v195c0 44.667 -19 67 -57 67c-18.667 0 -32.5 -6.66699 -41.5 -20s-13.5 -29 -13.5 -47v-24h-266v20c0 58 13.333 108 40 150s64.167 74 112.5 96s104.5 33 168.5 33c100.667 0 180 -25.167 238 -75.5z" />
    <glyph glyph-name="uni10D5" unicode="&#x10d5;" horiz-adv-x="711" 
d="M648.5 317.5c21.667 -25.667 32.499 -58.167 32.499 -97.5c0 -43.333 -13.167 -83 -39.5 -119s-64.166 -64.333 -113.499 -85s-106.666 -31 -171.999 -31c-104.667 0 -186.834 23.833 -246.501 71.5s-89.5 115.167 -89.5 202.5v12h266v-21c0 -19.333 5 -34.5 15 -45.5
s27.333 -16.5 52 -16.5c22.667 0 38.334 4.33301 47.001 13s13 20.667 13 36c0 12.667 -4.66699 23 -14 31s-24.333 12 -45 12h-23v162h24c32 0 48 12.667 48 38c0 13.333 -4.33301 24.5 -13 33.5s-22.334 13.5 -41.001 13.5c-20 0 -34.667 -5 -44 -15s-14 -22.333 -14 -37
v-19h-266v15c0 54.667 13.333 101.334 40 140.001s64.334 68.167 113.001 88.5s105.667 30.5 171 30.5c61.333 0 115.666 -8.5 162.999 -25.5s84.333 -41.667 111 -74s40 -70.833 40 -115.5c0 -38 -8.16699 -69.167 -24.5 -93.5s-38.833 -41.833 -67.5 -52.5
c30 -8.66699 55.833 -25.834 77.5 -51.501z" />
    <glyph glyph-name="uni10D6" unicode="&#x10d6;" horiz-adv-x="872" 
d="M787 396c36.667 -39.333 55.002 -90.333 55.002 -153v-16c0 -51.333 -13.833 -95.166 -41.5 -131.499s-66.334 -63.833 -116.001 -82.5s-107.167 -28 -172.5 -28c-98.667 0 -177.5 23 -236.5 69s-88.5 112.667 -88.5 200v22c-46.667 14 -85.334 39 -116.001 75
s-46 81.333 -46 136v17c0 47.333 13 88.166 39 122.499s61.833 60.166 107.5 77.499s97.167 26 154.5 26c91.333 0 165.833 -19.167 223.5 -57.5s86.5 -95.833 86.5 -172.5v-34c64 -7.33301 114.333 -30.666 151 -69.999zM384.002 496c0 14.667 -5 26.167 -15 34.5
s-22.667 12.5 -38 12.5c-14 0 -25.833 -4 -35.5 -12s-14.5 -17.667 -14.5 -29c0 -15.333 4.5 -25.5 13.5 -30.5s21.167 -7.5 36.5 -7.5h53v32zM572.002 242c0 14 -5.50098 25.166 -16.501 33.499s-26.167 12.5 -45.5 12.5h-60v-51c0 -16 5.33301 -29.167 16 -39.5
s25.334 -15.5 44.001 -15.5c20 0 35.333 4.33301 46 13s16 20.334 16 35.001v12z" />
    <glyph glyph-name="uni10D7" unicode="&#x10d7;" horiz-adv-x="1083" 
d="M905 700c40 -20 72.168 -49.998 96.501 -89.998s36.5 -88 36.5 -144v-466h-266v466c0 16.667 -4 30.167 -12 40.5s-19.333 15.5 -34 15.5s-25.834 -5.33301 -33.501 -16s-11.5 -24 -11.5 -40v-193c0 -91.333 -28 -162.166 -84 -212.499s-133 -75.5 -231 -75.5
c-66 0 -123.5 11.167 -172.5 33.5s-86.833 55.166 -113.5 98.499s-40 95.666 -40 156.999v167c0 60.667 13.167 112.667 39.5 156s63.333 76.333 111 99s102.834 34 165.501 34c94 0 162 -35 204 -105c23.333 37.333 51.666 64.166 84.999 80.499s77 24.5 131 24.5
c46 0 89 -10 129 -30zM423.001 445.002c0 51.333 -18.9971 77 -56.9971 77c-20.667 0 -35.834 -7.33301 -45.501 -22s-14.5 -33 -14.5 -55v-175c0 -22.667 4.66699 -41.167 14 -55.5s24.666 -21.5 45.999 -21.5s36.166 6.83301 44.499 20.5s12.5 32.5 12.5 56.5v175z" />
    <glyph glyph-name="uni10D8" unicode="&#x10d8;" horiz-adv-x="741" 
d="M696 0l-268.002 0.000976562v445c0 24 -4.16699 42.833 -12.5 56.5s-23.166 20.5 -44.499 20.5s-36.666 -7.16699 -45.999 -21.5s-14 -32.833 -14 -55.5v-445h-266v441c0 61.333 13.333 113.666 40 156.999s64.5 76.166 113.5 98.499s106.5 33.5 172.5 33.5
c100.667 0 180 -25.167 238 -75.5s87 -121.166 87 -212.499v-442z" />
    <glyph glyph-name="uni10D9" unicode="&#x10d9;" horiz-adv-x="696" 
d="M631 367c23.333 -30 34.999 -72.6689 34.999 -128.002v-13c0 -47.333 -13.667 -89.333 -41 -126s-65.833 -65 -115.5 -85s-107.167 -30 -172.5 -30c-99.333 0 -177.833 22.333 -235.5 67s-86.5 109.334 -86.5 194.001v42h266v-34c0 -18 5.16699 -32.667 15.5 -44
s24.833 -17 43.5 -17c20 0 34.667 5.66699 44 17s14 26 14 44v19c0 18 -5 32.333 -15 43s-25 16 -45 16h-42v183h32c20.667 0 35.834 5.33301 45.501 16s14.5 27 14.5 49v135h260v-133c0 -42 -9.33301 -75.667 -28 -101s-43 -43.666 -73 -54.999
c32.667 -9.33301 60.667 -29 84 -59z" />
    <glyph glyph-name="uni10DA" unicode="&#x10da;" horiz-adv-x="1350" 
d="M1194.5 700c40.333 -20 72.1709 -49.835 95.5039 -89.502s35 -87.834 35 -144.501v-166h-266v164c0 16.667 -3.83301 30.5 -11.5 41.5s-18.167 16.5 -31.5 16.5c-14 0 -24.5 -5.5 -31.5 -16.5s-10.5 -24.833 -10.5 -41.5v-108h-258v108c0 16.667 -3.5 30.5 -10.5 41.5
s-17.5 16.5 -31.5 16.5s-24.5 -5.5 -31.5 -16.5s-10.5 -24.833 -10.5 -41.5v-108h-258v109c0 16.667 -3.33301 30.334 -10 41.001s-17 16 -31 16s-24.833 -5.5 -32.5 -16.5s-11.5 -24.5 -11.5 -40.5v-34c0 -43.333 15.5 -75.166 46.5 -95.499s78.167 -34.166 141.5 -41.499
l206 -24c109.333 -12.667 189.666 -43.834 240.999 -93.501s77 -108.5 77 -176.5h-291c-8 18 -22.333 31.5 -43 40.5s-46.334 15.167 -77.001 18.5l-230 27c-68.667 8 -128.334 26.333 -179.001 55s-89.667 65.5 -117 110.5s-41 95.5 -41 151.5v63
c0 56.667 11.667 104.834 35 144.501s55.166 69.5 95.499 89.5s85.5 30 135.5 30c48 0 88.833 -9 122.5 -27s59.167 -45.667 76.5 -83c16.667 36.667 41.167 64.167 73.5 82.5s68.833 27.5 109.5 27.5c43.333 0 81.5 -9.16699 114.5 -27.5s57.833 -45.833 74.5 -82.5
c17.333 37.333 42.833 65 76.5 83s74.5 27 122.5 27c50 0 95.167 -10 135.5 -30z" />
    <glyph glyph-name="uni10DB" unicode="&#x10db;" horiz-adv-x="719" 
d="M592.5 660.5c57.667 -46.333 86.5 -114.165 86.5 -203.498v-183c0 -96 -29.833 -168.167 -89.5 -216.5s-139.5 -72.5 -239.5 -72.5c-65.333 0 -122.833 9.33301 -172.5 28s-88.334 46.167 -116.001 82.5s-41.5 80.166 -41.5 131.499v16
c0 75.333 26.833 132.666 80.5 171.999s124.167 59 211.5 59h100v28c0 12 -4.66699 21.833 -14 29.5s-23.333 11.5 -42 11.5c-17.333 0 -31.166 -3.83301 -41.499 -11.5s-15.5 -18.167 -15.5 -31.5h-259c0 76.667 30 134.167 90 172.5s137.333 57.5 232 57.5
c96 0 172.833 -23.167 230.5 -69.5zM412 288.001l-60.001 0.000976562c-19.333 0 -34.5 -4.16699 -45.5 -12.5s-16.5 -19.5 -16.5 -33.5v-12c0 -14.667 5.33301 -26.334 16 -35.001s26 -13 46 -13c18.667 0 33.334 5.16699 44.001 15.5s16 23.5 16 39.5v51z" />
    <glyph glyph-name="uni10DC" unicode="&#x10dc;" horiz-adv-x="719" 
d="M645 715l0.000976562 -187.002h-292c-14 0 -25.167 -4 -33.5 -12s-12.5 -17.667 -12.5 -29v-13h100c87.333 0 157.833 -19.667 211.5 -59s80.5 -96.666 80.5 -171.999v-16c0 -51.333 -13.833 -95.166 -41.5 -131.499s-66.334 -63.833 -116.001 -82.5
s-107.167 -28 -172.5 -28c-100 0 -179.833 24.167 -239.5 72.5s-89.5 120.5 -89.5 216.5v193c0 78.667 25.667 139.667 77 183s121.333 65 210 65h318zM323.001 197.498c10.667 -10.333 25.333 -15.501 44 -15.501c20 0 35.333 4.33301 46 13s16 20.334 16 35.001v12
c0 14 -5.5 25.167 -16.5 33.5s-26.167 12.5 -45.5 12.5h-60v-51c0 -16 5.33301 -29.167 16 -39.5z" />
    <glyph glyph-name="uni10DD" unicode="&#x10dd;" horiz-adv-x="1062" 
d="M886.5 700c40.333 -20 72.1621 -49.833 95.4951 -89.5s35 -87.834 35 -144.501v-466h-266v461c0 16.667 -4 31 -12 43s-19.333 18 -34 18c-15.333 0 -26.666 -5.83301 -33.999 -17.5s-11 -26.167 -11 -43.5v-321h-258v321c0 17.333 -3.66699 31.833 -11 43.5
s-18.666 17.5 -33.999 17.5c-14.667 0 -26 -6 -34 -18s-12 -26.333 -12 -43v-461h-266v466c0 56.667 11.667 104.834 35 144.501s55.166 69.5 95.499 89.5s85.5 30 135.5 30c52.667 0 96.834 -8.83301 132.501 -26.5s64.834 -45.5 87.501 -83.5
c22.667 38 51.834 65.833 87.501 83.5s79.834 26.5 132.501 26.5c50 0 95.167 -10 135.5 -30z" />
    <glyph glyph-name="uni10DE" unicode="&#x10de;" horiz-adv-x="696" 
d="M632 328c22.667 -28.667 34.0039 -66.3359 34.0039 -113.003v-5c0 -43.333 -13.333 -82 -40 -116s-64.5 -60.667 -113.5 -80s-105.5 -29 -169.5 -29c-66 0 -123.667 10.167 -173 30.5s-87.5 49.333 -114.5 87s-40.5 81.167 -40.5 130.5v34h266v-22
c0 -16 5.16699 -28.667 15.5 -38s25.166 -14 44.499 -14s33.666 4.33301 42.999 13s14 19.334 14 32.001v7c0 12.667 -5.33301 22.834 -16 30.501s-25.334 11.5 -44.001 11.5h-32v175h24c25.333 0 38 9.66699 38 29c0 11.333 -4 20.333 -12 27s-21.333 14.334 -40 23.001
c-21.333 10.667 -39 21 -53 31s-26.167 25 -36.5 45s-15.5 46 -15.5 78v20h267c1.33301 -13.333 7.16602 -24.5 17.499 -33.5s26.5 -19.5 48.5 -31.5s39.833 -23.333 53.5 -34s25.5 -25 35.5 -43s15 -40 15 -66c0 -62 -31.333 -102.667 -94 -122
c29.333 -9.33301 55.333 -28.333 78 -57z" />
    <glyph glyph-name="uni10DF" unicode="&#x10df;" horiz-adv-x="726" 
d="M686 715l0.000976562 -442.002c0 -91.333 -29 -162.166 -87 -212.499s-137.333 -75.5 -238 -75.5s-180.167 21.833 -238.5 65.5s-87.5 106.167 -87.5 187.5h266c0 -16 5 -28.667 15 -38s25 -14 45 -14c21.333 0 36.166 6.83301 44.499 20.5s12.5 32.5 12.5 56.5v288
l-115 -18c24 -12 42.167 -26.667 54.5 -44s18.5 -38.666 18.5 -63.999c0 -46 -18 -81.5 -54 -106.5s-91 -37.5 -165 -37.5h-121v168h75c31.333 0 47 9.33301 47 28c0 20 -15.667 30 -47 30h-45v161l352 47h268z" />
    <glyph glyph-name="uni10E0" unicode="&#x10e0;" horiz-adv-x="1037" 
d="M876 450c40.667 -20 72.666 -49.8281 95.999 -89.4951s35 -87.834 35 -144.501v-216h-266v211c0 17.333 -4 31.833 -12 43.5s-19.333 17.5 -34 17.5c-15.333 0 -26.666 -6 -33.999 -18s-11 -26.333 -11 -43v-131h-258v151c0 16.667 -3.66699 31 -11 43
s-18.666 18 -33.999 18c-14.667 0 -26 -5.83301 -34 -17.5s-12 -26.167 -12 -43.5v-231h-266v319c0 92 23.5 166.5 70.5 223.5s114.833 97.833 203.5 122.5l96 27c18 5.33301 31.667 10.666 41 15.999s16.666 12.666 21.999 21.999h291
c0 -59.333 -17.167 -104.833 -51.5 -136.5s-85.5 -54.5 -153.5 -68.5l-110 -23c-20 -4.66699 -36.833 -9.33398 -50.5 -14.001s-27.167 -11.334 -40.5 -20.001c80 0 136 -34.333 168 -103c42.667 76.667 114.667 115 216 115c52 0 98.333 -10 139 -30z" />
    <glyph glyph-name="uni10E1" unicode="&#x10e1;" horiz-adv-x="726" 
d="M607.5 58.5c-59 -49 -138.497 -73.5 -238.497 -73.5c-102 0 -182.333 25.167 -241 75.5s-88 121.5 -88 213.5v441h266v-445c0 -23.333 4.66699 -42 14 -56s24.666 -21 45.999 -21s36.166 7 44.499 21s12.5 32.667 12.5 56v26c0 16 -1.66699 29.167 -5 39.5
s-9 23.166 -17 38.499c-8.66699 16 -15.334 31.5 -20.001 46.5s-7 34.5 -7 58.5v21h267c0 -15.333 1.83301 -29.333 5.5 -42s9.5 -28.667 17.5 -48c10 -24 17.833 -46.167 23.5 -66.5s8.5 -45.166 8.5 -74.499c0 -91.333 -29.5 -161.5 -88.5 -210.5z" />
    <glyph glyph-name="uni10E2" unicode="&#x10e2;" horiz-adv-x="905" 
d="M797.5 577.5c51.667 -55.667 77.498 -126.499 77.498 -212.499v-33c0 -70.667 -17.333 -132.167 -52 -184.5s-83.5 -92.5 -146.5 -120.5s-136.167 -42 -219.5 -42c-85.333 0 -160.166 14.5 -224.499 43.5s-114.166 69.667 -149.499 122s-53 112.833 -53 181.5v33
c0 86.667 26.5 157.667 79.5 213s125.167 90.333 216.5 105l-2 47h260l-2 -47c92 -14.667 163.833 -49.834 215.5 -105.501zM601.998 378.001c0 55.333 -16.001 93.333 -48.001 114l6 -189h-212l6 190c-16 -10 -28.5 -24.833 -37.5 -44.5s-13.5 -43.167 -13.5 -70.5v-43
c0 -44.667 12.833 -79.5 38.5 -104.5s62.834 -37.5 111.501 -37.5s85.667 12.333 111 37s38 59.667 38 105v43z" />
    <glyph glyph-name="uni10E3" unicode="&#x10e3;" horiz-adv-x="751" 
d="M590 704c36.667 -17.333 65.9971 -43.833 87.9971 -79.5s33 -79.834 33 -132.501v-219c0 -91.333 -29 -162.166 -87 -212.499s-137.333 -75.5 -238 -75.5c-66 0 -123.5 10.667 -172.5 32s-86.833 52.5 -113.5 93.5s-40 90.5 -40 148.5v52h266v-51
c0 -18 4.83301 -33.667 14.5 -47s24.834 -20 45.501 -20c38 0 57 22.333 57 67v219c0 13.333 -3 23.833 -9 31.5s-15 11.5 -27 11.5c-11.333 0 -20.166 -3.83301 -26.499 -11.5s-9.5 -18.167 -9.5 -31.5v-98h-246v69c0 37.333 -18.333 56 -55 56h-45v215h73
c40 0 74.667 -6.66699 104 -20s53 -37 71 -71c20 35.333 46 60.833 78 76.5s71 23.5 117 23.5c44.667 0 85.334 -8.66699 122.001 -26z" />
    <glyph glyph-name="uni10E4" unicode="&#x10e4;" horiz-adv-x="951" 
d="M878 319c17.333 -25.333 25.9961 -57.6699 25.9961 -97.0029c0 -45.333 -12.667 -85.833 -38 -121.5s-64.166 -63.834 -116.499 -84.501s-117.166 -31 -194.499 -31c-108.667 0 -194.5 20.667 -257.5 62s-94.5 101.333 -94.5 180h266c0 -14 7.33301 -25.333 22 -34
s36.667 -13 66 -13c57.333 0 86 18.667 86 56c0 13.333 -3.66699 24 -11 32s-17.333 12 -30 12h-5v162h31c13.333 0 23.666 3.33301 30.999 10s11 16 11 28c0 12.667 -4 22.834 -12 30.501s-19.333 11.5 -34 11.5c-17.333 0 -28.666 -4.66699 -33.999 -14
s-9 -22.666 -11 -39.999c-9.33301 -68 -37.333 -119.833 -84 -155.5s-112 -53.5 -196 -53.5c-52.667 0 -100.167 9.16699 -142.5 27.5s-75.666 44.333 -99.999 78s-36.5 72.834 -36.5 117.501v22c0 47.333 11.833 88 35.5 122s55.834 59.833 96.501 77.5s86 26.5 136 26.5
c44 0 83.333 -7 118 -21s61.334 -34.667 80.001 -62c20 27.333 46.5 48 79.5 62s70.167 21 111.5 21c46 0 88 -8.16699 126 -24.5s68 -40 90 -71s33 -67.167 33 -108.5c0 -42.667 -10.833 -76.667 -32.5 -102s-48.167 -43.666 -79.5 -54.999
c25.333 -8 46.666 -24.667 63.999 -50zM350.996 495.996c0 14.667 -5.16699 26.667 -15.5 36s-22.5 14 -36.5 14s-26.333 -4.66699 -37 -14s-16 -21.333 -16 -36v-6c0 -15.333 5 -27.666 15 -36.999s22.667 -14 38 -14c14.667 0 27 4.66699 37 14s15 21.666 15 36.999v6z
" />
    <glyph glyph-name="uni10E5" unicode="&#x10e5;" horiz-adv-x="721" 
d="M681 715v-442.001c0 -91.333 -29 -162.166 -87 -212.499s-137.333 -75.5 -238 -75.5c-65.333 0 -122.5 10.667 -171.5 32s-87 52.166 -114 92.499s-40.5 87.833 -40.5 142.5v32h266v-31c0 -17.333 4.83301 -31.666 14.5 -42.999s24.834 -17 45.501 -17
c38 0 57 22.333 57 67v177h-37c-36.667 0 -55 -16.667 -55 -50v-26h-266v32c0 81.333 25.167 142.333 75.5 183s122.166 61 215.499 61h67v78h268z" />
    <glyph glyph-name="uni10E6" unicode="&#x10e6;" horiz-adv-x="1032" 
d="M736 300l-0.00390625 160.998c0 16.667 -4 31 -12 43s-19.333 18 -34 18c-15.333 0 -26.666 -5.83301 -33.999 -17.5s-11 -26.167 -11 -43.5v-121h-258v121c0 17.333 -3.66699 31.833 -11 43.5s-18.666 17.5 -33.999 17.5c-14.667 0 -26 -6 -34 -18s-12 -26.333 -12 -43
v-46c0 -38.667 12 -68.167 36 -88.5s62.333 -37.166 115 -50.499l135 -34c68 -17.333 120.333 -46.666 157 -87.999s55 -92.666 55 -153.999h-291c-8 18.667 -19.5 32.667 -34.5 42s-37.833 17.666 -68.5 24.999l-105 25c-86 20 -151.667 56.167 -197 108.5
s-68 119.833 -68 202.5v63c0 56.667 11.667 104.834 35 144.501s55.166 69.5 95.499 89.5s85.5 30 135.5 30c52.667 0 96.834 -8.83301 132.501 -26.5s64.834 -45.5 87.501 -83.5c22.667 38 51.834 65.833 87.501 83.5s79.834 26.5 132.501 26.5c50 0 95.167 -10 135.5 -30
s72.166 -49.833 95.499 -89.5s35 -87.834 35 -144.501v-166h-266z" />
    <glyph glyph-name="uni10E7" unicode="&#x10e7;" horiz-adv-x="716" 
d="M676 715v-441.998c0 -92 -27.833 -163 -83.5 -213s-134.5 -75 -236.5 -75c-98.667 0 -176.834 22.5 -234.501 67.5s-86.5 110.5 -86.5 196.5v32h267v-31c0 -16.667 4.33301 -30.334 13 -41.001s22 -16 40 -16c20 0 33.833 5.16699 41.5 15.5s11.5 24.166 11.5 41.499v71
h-85c-85.333 0 -154.666 20 -207.999 60s-80 98.667 -80 176v158h267v-107c0 -30 5 -51 15 -63s25.667 -18 47 -18h45v188h267z" />
    <glyph glyph-name="uni10E8" unicode="&#x10e8;" horiz-adv-x="710" 
d="M613.5 669.5c43.667 -40.333 65.5 -99.499 65.5 -177.499v-228c0 -95.333 -29.5 -165.666 -88.5 -210.999s-139.167 -68 -240.5 -68c-65.333 0 -122.833 9.33301 -172.5 28s-88.334 46.167 -116.001 82.5s-41.5 80.166 -41.5 131.499v16c0 70.667 26.667 123.5 80 158.5
s124 52.5 212 52.5h100v44c0 11.333 -2.66699 20.5 -8 27.5s-13.666 10.5 -24.999 10.5c-10 0 -17.667 -3.5 -23 -10.5s-8 -16.167 -8 -27.5v-17h-250v17c0 11.333 -2.83301 19.166 -8.5 23.499s-13.834 6.5 -24.501 6.5h-31v193h63c38.667 0 70.5 -6 95.5 -18
s44.833 -33 59.5 -63c16 30 41.333 52.5 76 67.5s73.667 22.5 117 22.5c68.667 0 124.834 -20.167 168.501 -60.5zM412 276.001h-60.001c-22 0 -37.833 -4 -47.5 -12s-14.5 -20 -14.5 -36c0 -14 5.5 -25.167 16.5 -33.5s26.167 -12.5 45.5 -12.5
c18.667 0 33.334 5.16699 44.001 15.5s16 23.5 16 39.5v39z" />
    <glyph glyph-name="uni10E9" unicode="&#x10e9;" horiz-adv-x="711" 
d="M654.5 329.5c17.667 -31.667 26.5 -68.834 26.5 -111.501v-218h-267v177c0 30 -5 51 -15 63s-25.667 18 -47 18h-45v-258h-267v462c0 84 27.167 149.667 81.5 197s133.833 71 238.5 71c56.667 0 107 -9 151 -27s78.333 -42.667 103 -74s37 -66.666 37 -105.999
c0 -28 -6.33301 -52.167 -19 -72.5s-31.667 -37.833 -57 -52.5c35.333 -14 61.833 -36.833 79.5 -68.5zM304 457h41c14 0 24.667 3.16699 32 9.5s11 16.833 11 31.5c0 10.667 -3.83301 19.667 -11.5 27s-18.167 11 -31.5 11c-14 0 -24.333 -3.5 -31 -10.5
s-10 -16.167 -10 -27.5v-41z" />
    <glyph glyph-name="uni10EA" unicode="&#x10ea;" horiz-adv-x="771" 
d="M707 354.5c22.667 -27 33.999 -66.833 33.999 -119.5v-15c0 -44 -13.5 -83.833 -40.5 -119.5s-66.5 -63.834 -118.5 -84.501s-114 -31 -186 -31c-112.667 0 -200.167 27.667 -262.5 83s-93.5 132.333 -93.5 231v416h266v-425c0 -30.667 6.83301 -55.334 20.5 -74.001
s35.834 -28 66.501 -28c53.333 0 80 20 80 60v12c0 18 -5.5 32 -16.5 42s-27.167 15 -48.5 15h-27v175h27c16.667 0 30 3.16699 40 9.5s15 15.833 15 28.5c0 14 -3 25.333 -9 34s-15.667 19.334 -29 32.001c-16 14.667 -28.167 28.667 -36.5 42s-12.5 31.666 -12.5 54.999
v22h261c0 -11.333 2.83301 -21.666 8.5 -30.999s14.167 -20.666 25.5 -33.999c16.667 -20.667 29.5 -39.5 38.5 -56.5s13.5 -38.167 13.5 -63.5c0 -34 -8.66699 -59.667 -26 -77s-42 -32 -74 -44c33.333 -9.33301 61.333 -27.5 84 -54.5z" />
    <glyph glyph-name="uni10EB" unicode="&#x10eb;" horiz-adv-x="719" 
d="M679 274c0 -64 -14 -117.667 -42 -161s-66.333 -75.5 -115 -96.5s-104.667 -31.5 -168 -31.5c-66.667 0 -125 9.83301 -175 29.5s-89 48.5 -117 86.5s-42 83.333 -42 136v11c0 54 12.5 100 37.5 138s59.5 66.5 103.5 85.5s94.333 28.5 151 28.5h100v215h267v-441z
M307.5 196c11.667 -9.33301 26.834 -14.002 45.501 -14.002c19.333 0 34 5.33301 44 16s15 25.334 15 44.001v61h-59c-18.667 0 -33.834 -4.66699 -45.501 -14s-17.5 -22.333 -17.5 -39v-14c0 -17.333 5.83301 -30.666 17.5 -39.999z" />
    <glyph glyph-name="uni10EC" unicode="&#x10ec;" horiz-adv-x="847" 
d="M587 478l0.00195312 27.002c0 9.33301 -2.33301 16.833 -7 22.5s-11.334 8.5 -20.001 8.5s-15.334 -2.83301 -20.001 -8.5s-7 -13.167 -7 -22.5v-18h-210v18c0 10 -2.66699 17.667 -8 23s-12 8 -20 8c-8.66699 0 -15.5 -2.66699 -20.5 -8s-7.5 -13 -7.5 -23
c0 -14.667 3.66699 -31.667 11 -51h345c51.333 0 91.833 -11 121.5 -33s44.5 -54.333 44.5 -97c0 -33.333 -7.5 -62.666 -22.5 -87.999s-37.833 -53 -68.5 -83l-161 -153h-246l-186 275c-26.667 39.333 -49.167 80.166 -67.5 122.499s-27.5 80.5 -27.5 114.5
c0 70 20.667 123.833 62 161.5s95.333 56.5 162 56.5c42.667 0 81.167 -6.83301 115.5 -20.5s58.166 -34.834 71.499 -63.501c14.667 29.333 38.5 50.666 71.5 63.999s71.833 20 116.5 20c68.667 0 123.834 -17.333 165.501 -52s62.5 -87 62.5 -157v-43h-250z
M512.002 261.002c0 16.667 -11 25 -33 25h-106l69 -117l58 65c8 8 12 17 12 27z" />
    <glyph glyph-name="uni10ED" unicode="&#x10ed;" horiz-adv-x="774" 
d="M774 482l-97.999 0.000976562v-229c0 -90 -27.5 -157.167 -82.5 -201.5s-133.5 -66.5 -235.5 -66.5c-100.667 0 -179.667 20.5 -237 61.5s-86 100.833 -86 179.5l266 1c0 -30 19 -45 57 -45c18.667 0 31.667 4.66699 39 14s11 22.666 11 39.999v25h-141
c-158 0 -237 66 -237 198c0 66 21.167 115.5 63.5 148.5s100.166 49.5 173.499 49.5h141v58h268v-58h98v-175zM408.001 482.001h-82c-20 0 -30 -7.66699 -30 -23s10 -23 30 -23h82v46z" />
    <glyph glyph-name="uni10EE" unicode="&#x10ee;" horiz-adv-x="719" 
d="M307 715v-215h100c56.667 0 107 -9.5 151 -28.5s78.5 -47.5 103.5 -85.5s37.5 -84 37.5 -138v-11c0 -52.667 -14 -98 -42 -136s-67 -66.833 -117 -86.5s-108.333 -29.5 -175 -29.5c-63.333 0 -119.333 10.5 -168 31.5s-87 53.167 -115 96.5s-42 97 -42 161v441h267z
M429 250c0 16.667 -5.83301 29.6689 -17.5 39.002s-26.834 14 -45.501 14h-59v-61c0 -18.667 5 -33.334 15 -44.001s24.667 -16 44 -16c18.667 0 33.834 4.66699 45.501 14s17.5 22.666 17.5 39.999v14z" />
    <glyph glyph-name="uni10EF" unicode="&#x10ef;" horiz-adv-x="719" 
d="M635.5 389.5c35.667 -36.333 53.499 -86.832 53.499 -151.499v-11c0 -49.333 -14.5 -92.333 -43.5 -129s-68.833 -64.667 -119.5 -84s-107.667 -29 -171 -29c-62 0 -117.667 9.66699 -167 29s-88 47.666 -116 84.999s-42 81.666 -42 132.999v18h267v-18
c0 -14 5.16699 -25.833 15.5 -35.5s24.833 -14.5 43.5 -14.5s33.834 4.5 45.501 13.5s17.5 21.5 17.5 37.5v11c0 14.667 -5.83301 26.5 -17.5 35.5s-26.834 13.5 -45.501 13.5h-135v204h-181v178h181v55h267v-55h181v-178h-181v-36
c62.667 -11.333 111.834 -35.166 147.501 -71.499z" />
    <glyph glyph-name="uni10F0" unicode="&#x10f0;" horiz-adv-x="681" 
d="M623 255.5c18.667 -21.667 27.9971 -50.1641 27.9971 -85.4971c0 -36.667 -13.167 -69 -39.5 -97s-63.666 -49.667 -111.999 -65s-104.166 -23 -167.499 -23c-99.333 0 -177.833 19.667 -235.5 59s-86.5 95.666 -86.5 168.999h266c0 -15.333 4.5 -25.833 13.5 -31.5
s22.5 -8.5 40.5 -8.5c35.333 0 53 10.667 53 32c0 11.333 -4.5 19.5 -13.5 24.5s-23.5 7.5 -43.5 7.5h-35v125h44c12 0 21 1.66699 27 5s9 9.33301 9 18c0 14.667 -12 22 -36 22h-44v125h24c14.667 0 24.667 1 30 3s8 7.33301 8 16c0 7.33301 -3.16699 13.166 -9.5 17.499
s-16.833 9.5 -31.5 15.5c-18.667 7.33301 -34.5 15 -47.5 23s-24.333 20.667 -34 38s-14.5 40.666 -14.5 69.999h267c2.66699 -10 8.33398 -18.333 17.001 -25s21.334 -13.667 38.001 -21c24 -10.667 42.5 -22.334 55.5 -35.001s19.5 -31.667 19.5 -57
c0 -22.667 -6 -40 -18 -52s-30.667 -22 -56 -30c28 -5.33301 51.5 -16.166 70.5 -32.499s28.5 -38.833 28.5 -67.5c0 -25.333 -9.83301 -46 -29.5 -62s-42.834 -25.333 -69.501 -28c37.333 -11.333 65.333 -27.833 84 -49.5z" />
    <glyph glyph-name="uni10F1" unicode="&#x10f1;" 
 />
    <glyph glyph-name="uni10F2" unicode="&#x10f2;" 
 />
    <glyph glyph-name="uni10F3" unicode="&#x10f3;" 
 />
    <glyph glyph-name="uni10F4" unicode="&#x10f4;" 
 />
    <glyph glyph-name="uni10F5" unicode="&#x10f5;" 
 />
    <glyph glyph-name="uni10F6" unicode="&#x10f6;" 
 />
    <glyph glyph-name="uni10F7" unicode="&#x10f7;" 
 />
    <glyph glyph-name="uni10F8" unicode="&#x10f8;" 
 />
    <glyph glyph-name="uni10F9" unicode="&#x10f9;" 
 />
    <glyph glyph-name="uni10FA" unicode="&#x10fa;" 
 />
    <glyph glyph-name="uni10FD" unicode="&#x10fd;" 
 />
    <glyph glyph-name="uni10FE" unicode="&#x10fe;" 
 />
    <glyph glyph-name="uni10FF" unicode="&#x10ff;" 
 />
    <glyph glyph-name="endash" unicode="&#x2013;" horiz-adv-x="616" 
d="M40 433h536v-165h-536v165z" />
    <glyph glyph-name="emdash" unicode="&#x2014;" horiz-adv-x="822" 
d="M40 433h736v-165h-736v165z" />
    <glyph glyph-name="quoteright" unicode="&#x2019;" horiz-adv-x="319" 
d="M250 693c24 -24.667 36.002 -59.668 36.002 -105.001c0 -103.333 -52.333 -189 -157 -257l-86 80c37.333 30.667 60.666 61.334 69.999 92.001c-26.667 8 -47.167 21.5 -61.5 40.5s-21.5 42.167 -21.5 69.5c0 32 12.167 59.5 36.5 82.5s54.166 34.5 89.499 34.5
c38.667 0 70 -12.333 94 -37z" />
    <glyph glyph-name="quotedblleft" unicode="&#x201c;" horiz-adv-x="573" 
d="M56 525c-24 24.667 -36.002 59.668 -36.002 105.001c0 103.333 52.333 189 157 257l86 -80c-37.333 -30.667 -60.666 -61.334 -69.999 -92.001c26.667 -8 47.167 -21.5 61.5 -40.5s21.5 -42.167 21.5 -69.5c0 -32 -12.167 -59.5 -36.5 -82.5s-54.166 -34.5 -89.499 -34.5
c-38.667 0 -70 12.333 -94 37zM332.998 525.001c-24 24.667 -36.002 59.668 -36.002 105.001c0 103.333 52.333 189 157 257l86 -80c-37.333 -30.667 -60.666 -61.334 -69.999 -92.001c26.667 -8 47.167 -21.5 61.5 -40.5s21.5 -42.167 21.5 -69.5
c0 -32 -12.167 -59.5 -36.5 -82.5s-54.166 -34.5 -89.499 -34.5c-38.667 0 -70 12.333 -94 37z" />
    <glyph glyph-name="quotedblbase" unicode="&#x201e;" horiz-adv-x="573" 
d="M240 190c24 -24.667 36.002 -59.668 36.002 -105.001c0 -103.333 -52.333 -189 -157 -257l-86 80c37.333 30.667 60.666 61.334 69.999 92.001c-26.667 8 -47.167 21.5 -61.5 40.5s-21.5 42.167 -21.5 69.5c0 32 12.167 59.5 36.5 82.5s54.166 34.5 89.499 34.5
c38.667 0 70 -12.333 94 -37zM517.002 189.999c24 -24.667 36.002 -59.668 36.002 -105.001c0 -103.333 -52.333 -189 -157 -257l-86 80c37.333 30.667 60.666 61.334 69.999 92.001c-26.667 8 -47.167 21.5 -61.5 40.5s-21.5 42.167 -21.5 69.5c0 32 12.167 59.5 36.5 82.5
s54.166 34.5 89.499 34.5c38.667 0 70 -12.333 94 -37z" />
    <glyph glyph-name="uni2033" unicode="&#x2033;" horiz-adv-x="573" 
d="M240 693c24 -24.667 36.002 -59.668 36.002 -105.001c0 -103.333 -52.333 -189 -157 -257l-86 80c37.333 30.667 60.666 61.334 69.999 92.001c-26.667 8 -47.167 21.5 -61.5 40.5s-21.5 42.167 -21.5 69.5c0 32 12.167 59.5 36.5 82.5s54.166 34.5 89.499 34.5
c38.667 0 70 -12.333 94 -37zM517.002 692.999c24 -24.667 36.002 -59.668 36.002 -105.001c0 -103.333 -52.333 -189 -157 -257l-86 80c37.333 30.667 60.666 61.334 69.999 92.001c-26.667 8 -47.167 21.5 -61.5 40.5s-21.5 42.167 -21.5 69.5c0 32 12.167 59.5 36.5 82.5
s54.166 34.5 89.499 34.5c38.667 0 70 -12.333 94 -37z" />
    <glyph glyph-name="arrowleft" unicode="&#x2190;" horiz-adv-x="785" 
d="M206.5 35c-57 33.333 -102.333 78.666 -136 135.999s-50.5 119.666 -50.5 186.999s16.667 129.5 50 186.5s78.5 102.167 135.5 135.5s119.167 50 186.5 50s129.666 -16.667 186.999 -50s102.666 -78.5 135.999 -135.5s50 -119.167 50 -186.5
s-16.667 -129.666 -50 -186.999s-78.666 -102.666 -135.999 -135.999s-119.666 -50 -186.999 -50c-66.667 0 -128.5 16.667 -185.5 50zM448 189l-89 111h268v114h-270l91 112l-93 77l-194 -245l194 -245z" />
    <glyph glyph-name="arrowright" unicode="&#x2192;" horiz-adv-x="785" 
d="M206 35c-57.333 33.333 -102.666 78.666 -135.999 135.999s-50 119.666 -50 186.999s16.667 129.5 50 186.5s78.666 102.167 135.999 135.5s119.666 50 186.999 50s129.5 -16.667 186.5 -50s102.167 -78.5 135.5 -135.5s50 -119.167 50 -186.5
s-16.833 -129.666 -50.5 -186.999s-79 -102.666 -136 -135.999s-118.833 -50 -185.5 -50c-67.333 0 -129.666 16.667 -186.999 50zM624 358l-194 245l-93 -77l91 -112h-270v-114h268l-89 -111l93 -76z" />
    <glyph glyph-name="uni10D0.case" 
 />
    <glyph glyph-name="uni10D1.case" 
 />
    <glyph glyph-name="uni10D2.case" 
 />
    <glyph glyph-name="uni10D3.case" 
 />
    <glyph glyph-name="uni10D4.case" 
 />
    <glyph glyph-name="uni10D5.case" 
 />
    <glyph glyph-name="uni10D6.case" 
 />
    <glyph glyph-name="uni10D7.case" 
 />
    <glyph glyph-name="uni10D8.case" 
 />
    <glyph glyph-name="uni10D9.case" 
 />
    <glyph glyph-name="uni10DA.case" 
 />
    <glyph glyph-name="uni10DB.case" 
 />
    <glyph glyph-name="uni10DC.case" 
 />
    <glyph glyph-name="uni10DD.case" 
 />
    <glyph glyph-name="uni10DE.case" 
 />
    <glyph glyph-name="uni10DF.case" 
 />
    <glyph glyph-name="uni10E0.case" 
 />
    <glyph glyph-name="uni10E1.case" 
 />
    <glyph glyph-name="uni10E2.case" 
 />
    <glyph glyph-name="uni10E3.case" 
 />
    <glyph glyph-name="uni10E4.case" 
 />
    <glyph glyph-name="uni10E5.case" 
 />
    <glyph glyph-name="uni10E6.case" 
 />
    <glyph glyph-name="uni10E7.case" 
 />
    <glyph glyph-name="uni10E8.case" 
 />
    <glyph glyph-name="uni10E9.case" 
 />
    <glyph glyph-name="uni10EA.case" 
 />
    <glyph glyph-name="uni10EB.case" 
 />
    <glyph glyph-name="uni10EC.case" 
 />
    <glyph glyph-name="uni10ED.case" 
 />
    <glyph glyph-name="uni10EE.case" 
 />
    <glyph glyph-name="uni10EF.case" 
 />
    <glyph glyph-name="uni10F0.case" 
 />
    <glyph glyph-name="uni10F1.case" 
 />
    <glyph glyph-name="uni10F2.case" 
 />
    <glyph glyph-name="uni10F3.case" 
 />
    <glyph glyph-name="uni10F4.case" 
 />
    <glyph glyph-name="uni10F5.case" 
 />
    <glyph glyph-name="uni10F6.case" 
 />
    <glyph glyph-name="uni10F7.case" 
 />
    <glyph glyph-name="uni10F8.case" 
 />
    <glyph glyph-name="uni10F9.case" 
 />
    <glyph glyph-name="uni10FA.case" 
 />
    <glyph glyph-name="uni10FD.case" 
 />
    <glyph glyph-name="uni10FE.case" 
 />
    <glyph glyph-name="uni10FF.case" 
 />
    <glyph glyph-name="uni10DA.001" horiz-adv-x="1380" 
d="M1219.5 700c40.333 -20 72.168 -49.833 95.501 -89.5s35 -87.834 35 -144.501v-166h-266v164c0 16.667 -3.83301 30.5 -11.5 41.5s-18.167 16.5 -31.5 16.5c-14 0 -24.5 -5.5 -31.5 -16.5s-10.5 -24.833 -10.5 -41.5v-134h-258v134c0 16.667 -3.5 30.5 -10.5 41.5
s-17.5 16.5 -31.5 16.5s-24.5 -5.5 -31.5 -16.5s-10.5 -24.833 -10.5 -41.5v-134h-258v135c0 16.667 -3.33301 30.334 -10 41.001s-17 16 -31 16s-24.833 -5.5 -32.5 -16.5s-11.5 -24.5 -11.5 -40.5v-30c0 -76.667 28.333 -133.834 85 -171.501s130.667 -56.5 222 -56.5h419
v-207h-475c-102.667 0 -193.167 17.5 -271.5 52.5s-138.833 83.167 -181.5 144.5s-64 130 -64 206v63c0 56.667 11.667 104.834 35 144.501s55.166 69.5 95.499 89.5s85.5 30 135.5 30c48 0 88.833 -9 122.5 -27s59.167 -45.667 76.5 -83
c16.667 36.667 41.167 64.167 73.5 82.5s68.833 27.5 109.5 27.5c43.333 0 81.5 -9.16699 114.5 -27.5s57.833 -45.833 74.5 -82.5c17.333 37.333 42.833 65 76.5 83s74.5 27 122.5 27c50 0 95.167 -10 135.5 -30z" />
    <glyph glyph-name="uni10D3.ss01" horiz-adv-x="970" 
d="M816 702.5c38.667 -18.333 69.001 -45.3291 91.001 -80.9961s33 -78.5 33 -128.5c0 -74.667 -25 -132.334 -75 -173.001s-117.667 -61 -203 -61c-80.667 0 -146.334 17.5 -197.001 52.5s-78.667 84.833 -84 149.5c-3.33301 40.667 -17.333 61 -42 61
c-13.333 0 -23.833 -5.33301 -31.5 -16s-11.5 -24 -11.5 -40v-21c0 -52 13.5 -95.833 40.5 -131.5s63.667 -62.334 110 -80.001s98.5 -26.5 156.5 -26.5h259v-207h-345c-93.333 0 -177 17.667 -251 53s-131.833 83.666 -173.5 144.999s-62.5 129.666 -62.5 204.999v63
c0 56 12.167 104 36.5 144s56.5 70 96.5 90s83 30 129 30c49.333 0 87.333 -6.66699 114 -20s52 -36.333 76 -69c20 31.333 46.5 54 79.5 68s73.833 21 122.5 21c49.333 0 93.333 -9.16699 132 -27.5zM696.501 455.504c9.66699 9 14.5 20.501 14.5 34.501v6
c0 14.667 -4.66699 26.167 -14 34.5s-21.333 12.5 -36 12.5s-26.667 -4.16699 -36 -12.5s-14 -19.833 -14 -34.5v-6c0 -14.667 4.66699 -26.334 14 -35.001s21.333 -13 36 -13c14 0 25.833 4.5 35.5 13.5z" />
    <glyph glyph-name="uni10E0.ss01" horiz-adv-x="1032" 
d="M871.5 440c40.333 -20 72.167 -49.8311 95.5 -89.498s35 -87.834 35 -144.501v-206h-266v201c0 16.667 -4 31 -12 43s-19.333 18 -34 18c-15.333 0 -26.666 -5.83301 -33.999 -17.5s-11 -26.167 -11 -43.5v-121h-258v151c0 17.333 -3.66699 31.833 -11 43.5
s-18.666 17.5 -33.999 17.5c-14.667 0 -26 -6 -34 -18s-12 -26.333 -12 -43v-231h-266v319c0 82 18.667 152.833 56 212.5s89.666 105.167 156.999 136.5s145.333 47 234 47h335v-207h-369c-32 0 -56.833 -2.83301 -74.5 -8.5s-32.834 -16.167 -45.501 -31.5
c18.667 2.66699 31.667 4 39 4c70.667 0 122 -35.667 154 -107c22.667 35.333 52 61.666 88 78.999s80 26 132 26c50 0 95.167 -10 135.5 -30z" />
    <glyph glyph-name="uni10E6.ss01" horiz-adv-x="1032" 
d="M736 300l-0.00390625 161c0 16.667 -4 31 -12 43s-19.333 18 -34 18c-15.333 0 -26.666 -5.83301 -33.999 -17.5s-11 -26.167 -11 -43.5v-121h-258v121c0 17.333 -3.66699 31.833 -11 43.5s-18.666 17.5 -33.999 17.5c-14.667 0 -26 -6 -34 -18s-12 -26.333 -12 -43v-76
c0 -62 21.167 -107.167 63.5 -135.5s96.833 -42.5 163.5 -42.5h339v-207h-375c-88 0 -166.667 15.167 -236 45.5s-123.5 73 -162.5 128s-58.5 118.167 -58.5 189.5v103c0 56.667 11.667 104.834 35 144.501s55.166 69.5 95.499 89.5s85.5 30 135.5 30
c52.667 0 96.834 -8.83301 132.501 -26.5s64.834 -45.5 87.501 -83.5c22.667 38 51.834 65.833 87.501 83.5s79.834 26.5 132.501 26.5c50 0 95.167 -10 135.5 -30s72.166 -49.833 95.499 -89.5s35 -87.834 35 -144.501v-166h-266z" />
    <glyph glyph-name="arrowright.ss01" horiz-adv-x="785" 
d="M206 35c-57.333 33.333 -102.666 78.666 -135.999 135.999s-50 119.666 -50 186.999s16.667 129.5 50 186.5s78.666 102.167 135.999 135.5s119.666 50 186.999 50s129.5 -16.667 186.5 -50s102.167 -78.5 135.5 -135.5s50 -119.167 50 -186.5
s-16.667 -129.666 -50 -186.999s-78.5 -102.666 -135.5 -135.999s-119.167 -50 -186.5 -50s-129.666 16.667 -186.999 50zM557 74c50 29.333 89.667 69.166 119 119.499s44 105.166 44 164.499s-14.667 114 -44 164s-69 89.667 -119 119s-104.667 44 -164 44
s-114.166 -14.667 -164.499 -44s-90.166 -69 -119.499 -119s-44 -104.667 -44 -164s14.667 -114.166 44 -164.499s69.166 -90.166 119.499 -119.499s105.166 -44 164.499 -44s114 14.667 164 44zM624 358l-194 245l-93 -77l91 -112h-270v-114h268l-89 -111l93 -76z" />
    <glyph glyph-name="arrowleft.ss01" horiz-adv-x="785" 
d="M205.5 35c-57 33.333 -102.167 78.666 -135.5 135.999s-50 119.666 -50 186.999s16.667 129.5 50 186.5s78.5 102.167 135.5 135.5s119.167 50 186.5 50s129.666 -16.667 186.999 -50s102.666 -78.5 135.999 -135.5s50 -119.167 50 -186.5s-16.667 -129.666 -50 -186.999
s-78.666 -102.666 -135.999 -135.999s-119.666 -50 -186.999 -50s-129.5 16.667 -186.5 50zM556.5 74c50.333 29.333 90.166 69.166 119.499 119.499s44 105.166 44 164.499s-14.667 114 -44 164s-69.166 89.667 -119.499 119s-105.166 44 -164.499 44
s-114 -14.667 -164 -44s-89.667 -69 -119 -119s-44 -104.667 -44 -164s14.667 -114.166 44 -164.499s69 -90.166 119 -119.499s104.667 -44 164 -44s114.166 14.667 164.499 44zM448 189l-89 111h268v114h-270l91 112l-93 77l-194 -245l194 -245z" />
    </font>
</defs>
</svg>
